<svg xmlns="http://www.w3.org/2000/svg" width="20" height="20" viewBox="0 0 20 20">
    <g fill="none" fill-rule="evenodd">
        <g fill="#FFF" fill-rule="nonzero">
            <g>
                <path d="M17.523 12.89c-.987-1.04-2.173-1.797-3.422-2.21 1.244-1.122 2.028-2.747 2.028-4.551C16.129 2.749 13.379 0 10 0 6.62 0 3.871 2.75 3.871 6.129c0 1.804.784 3.429 2.028 4.551-1.249.413-2.435 1.17-3.422 2.21C.88 14.575 0 16.757 0 19.033V20h20v-.968c0-2.276-.88-4.458-2.477-6.141zM5.806 6.13c0-2.312 1.882-4.194 4.194-4.194 2.312 0 4.194 1.882 4.194 4.194 0 2.312-1.882 4.194-4.194 4.194-2.312 0-4.194-1.882-4.194-4.194zM2.004 18.065c.48-3.382 3.414-5.807 6.06-5.807h3.871c2.647 0 5.581 2.425 6.061 5.807H2.004z" transform="translate(-36 -170) translate(36 170)"/>
            </g>
        </g>
    </g>
</svg>
