<svg xmlns="http://www.w3.org/2000/svg" width="200" height="200" viewBox="0 0 200 200">
    <g fill="none" fill-rule="evenodd">
        <g fill="#FFF" fill-rule="nonzero">
            <g>
                <g opacity=".105">
                    <path d="M99.93 0.002L0 38.608 17.003 66.038 4.428 65.293 57.415 157.27 73.538 157.27 99.93 199.853 126.886 157.27 144.973 157.27 194.176 68.699 182.739 69.053 199.855 42.015z" transform="translate(-88 -129) translate(88 129)"/>
                </g>
                <g>
                    <path d="M32.076 6.067c-1.053-.46-2.28.02-2.74 1.073-.46 1.054.02 2.28 1.074 2.74 6.77 2.958 11.239 9.654 11.239 17.17 0 10.343-8.386 18.728-18.728 18.728-10.343 0-18.727-8.384-18.727-18.727 0-7.515 4.467-14.211 11.236-17.171 1.053-.46 1.533-1.687 1.072-2.74-.46-1.053-1.687-1.534-2.74-1.073C5.492 9.683.032 17.867.032 27.051c0 12.641 10.248 22.889 22.89 22.889 12.64 0 22.889-10.248 22.889-22.89 0-9.185-5.462-17.37-13.735-20.983z" transform="translate(-88 -129) translate(88 129) translate(77 61)"/>
                    <path d="M22.92 22.89c1.15 0 2.081-.932 2.081-2.082V2.081C25.001.93 24.07 0 22.921 0c-1.15 0-2.081.932-2.081 2.08v18.728c0 1.15.931 2.081 2.08 2.081z" transform="translate(-88 -129) translate(88 129) translate(77 61)"/>
                </g>
            </g>
        </g>
    </g>
</svg>
