<svg xmlns="http://www.w3.org/2000/svg" width="20" height="20" viewBox="0 0 20 20">
    <g fill="none" fill-rule="evenodd">
        <g fill="#5ED40A" fill-rule="nonzero">
            <g>
                <g>
                    <path d="M15.12 7.236l-6.428 6.456h-.005c-.081.082-.302.265-.557.265-.183 0-.39-.101-.563-.274L4.875 10.99c-.077-.077-.077-.197 0-.274l.856-.855c.038-.039.086-.058.134-.058.048 0 .097.02.135.058l2.135 2.134L14 6.087c.038-.039.087-.058.135-.058.053 0 .1.02.134.058l.842.87c.086.081.086.202.01.279zM10 0C4.476 0 0 4.476 0 10s4.476 10 10 10 10-4.476 10-10S15.524 0 10 0z" transform="translate(-325 -723) translate(30 717) translate(295 6)"/>
                </g>
            </g>
        </g>
    </g>
</svg>
