<svg xmlns="http://www.w3.org/2000/svg" width="127" height="25" viewBox="0 0 127 25">
    <g fill="none" fill-rule="evenodd">
        <g fill="#FFF" fill-rule="nonzero">
            <g>
                <g>
                    <path d="M.043 13.531s.14 1.571 1.15 1.964c.346.135.595.299.78.457l1.026-.817.196-.156.118.22c.004.008.148.27.418.669l.072-.036c.337-.169.308-1.151-.843-1.543-1.15-.393-1.514-2.076-1.514-2.076-.421.785.168 2.16.168 2.16h-.036c-.747 0-1.535-.842-1.535-.842zM12.415 24.922s1.206.224 2.553-1.123l-.149-.283c-.247.185-.386.3-.391.303l-.2.167-.12-.23-.68-1.297c-.245.15-.577.274-1.014.274-.437 0-.769-.124-1.014-.274l-.68 1.297-.12.23-.2-.167c-.004-.003-.143-.12-.391-.303l-.148.283c1.347 1.347 2.554 1.123 2.554 1.123z" transform="translate(-124 -47) translate(124 47)"/>
                    <path d="M7.225 21.583c1.293.619 2.334 1.336 2.883 1.745.273.203.427.33.427.33l.691-1.319.235-.447c-.814-.954-3.283-1.628-5.274-3.115-1.082-.807-1.889-1.762-2.402-2.467l-.123-.172-.12-.174c-.272-.403-.413-.665-.413-.665l-1.003.799-.163.129-.165.13-.044.036c.084 1.514 3.535 4.264 5.47 5.19zM12.415 0H3.81v11.932s-.336 3.628 3.18 5.76c3.515 2.132 5.124 2.88 5.423 3.89.3-1.01 1.908-1.758 5.424-3.89 3.516-2.132 3.179-5.76 3.179-5.76V0h-8.602zM24.786 13.531s-.788.843-1.535.843l-.036-.001s.59-1.375.169-2.16c0 0-.365 1.683-1.515 2.076-1.15.392-1.18 1.374-.843 1.543l.072.036c.27-.398.414-.661.418-.668l.119-.221.196.156 1.026.817c.184-.158.433-.322.779-.457 1.01-.393 1.15-1.964 1.15-1.964z" transform="translate(-124 -47) translate(124 47)"/>
                    <path d="M23.075 16.393l-.045-.035-.164-.131-.163-.13-1.003-.798s-.14.262-.412.665l-.12.173c-.04.056-.08.113-.124.172-.513.706-1.32 1.66-2.401 2.468-1.992 1.487-4.461 2.16-5.275 3.114l.235.447.69 1.32s.155-.127.428-.33c.55-.41 1.59-1.126 2.883-1.745 1.936-.926 5.387-3.676 5.47-5.19z" transform="translate(-124 -47) translate(124 47)"/>
                </g>
                <path d="M34.697 16c3.15 0 5.325-2.13 5.325-5.205 0-3.045-2.175-5.175-5.325-5.175h-3.405V16h3.405zm-.015-1.455h-1.755v-7.47h1.755c2.175 0 3.675 1.5 3.675 3.705 0 2.235-1.5 3.765-3.675 3.765zm10.005 1.59c1.126 0 2.116-.45 2.716-1.155V16h1.53v-3.69c0-2.22-1.636-3.825-3.916-3.825-2.28 0-3.915 1.605-3.915 3.825s1.516 3.825 3.586 3.825zm.346-1.335c-1.366 0-2.355-1.035-2.355-2.49 0-1.44.99-2.49 2.355-2.49 1.38 0 2.37 1.05 2.37 2.49 0 1.455-.99 2.49-2.37 2.49zm6.974 1.2v-4.395c0-1.11.675-1.695 1.816-1.695V8.62c-2.13 0-3.36 1.05-3.36 2.85V16h1.544zm4.41 0v-3.585L59.553 16h1.815l-3.406-3.855 3.405-3.525h-1.814l-3.136 3.3v-6.3h-1.53V16h1.53zm15.645 0c1.636 0 2.806-1.11 2.806-2.73 0-1.335-.825-2.34-2.07-2.625.99-.375 1.635-1.26 1.635-2.4 0-1.56-1.186-2.625-2.836-2.625h-4.71V16h5.175zm-.78-5.88h-2.76V7.045h2.76c.9 0 1.546.63 1.546 1.515 0 .9-.645 1.56-1.546 1.56zm.376 4.455h-3.136v-3.15h3.135c.886 0 1.546.66 1.546 1.575 0 .915-.66 1.575-1.546 1.575zM77.867 16V5.62h-1.53V16h1.53zm5.19.135c1.994 0 3.36-1.29 3.36-3.18V8.62h-1.53v4.335c0 1.155-.736 1.905-1.846 1.905s-1.83-.75-1.83-1.905V8.62h-1.53v4.335c0 1.89 1.365 3.18 3.376 3.18zm8.684 0c1.816 0 3.39-1.17 3.81-2.805h-1.56c-.285.885-1.184 1.545-2.235 1.545-1.275 0-2.235-.855-2.43-2.085h6.3c.03-.15.046-.315.046-.465-.016-2.235-1.65-3.84-3.93-3.84-2.28 0-3.945 1.605-3.945 3.825s1.665 3.825 3.945 3.825zm2.445-4.53h-4.814c.27-1.095 1.184-1.86 2.384-1.86 1.215 0 2.175.765 2.43 1.86zM106.263 16l3.914-10.38h-1.71l-3.15 8.73-3.164-8.73h-1.71L104.358 16h1.904zm6.27 3v-4.02c.585.705 1.5 1.155 2.58 1.155 2.174 0 3.72-1.605 3.72-3.78 0-2.265-1.635-3.87-3.915-3.87-2.28 0-3.916 1.605-3.916 3.825V19h1.53zm2.37-4.2c-1.38 0-2.37-1.05-2.37-2.49 0-1.455.99-2.49 2.37-2.49 1.364 0 2.354 1.035 2.354 2.49 0 1.44-.99 2.49-2.355 2.49zm6.84 1.2v-4.32c0-1.155.72-1.92 1.83-1.92s1.83.765 1.83 1.92V16h1.544v-4.32c0-1.905-1.38-3.195-3.39-3.195-1.995 0-3.36 1.29-3.36 3.195V16h1.546z" transform="translate(-124 -47) translate(124 47)"/>
            </g>
        </g>
    </g>
</svg>
