<svg xmlns="http://www.w3.org/2000/svg" width="16" height="20" viewBox="0 0 16 20">
    <g fill="none" fill-rule="evenodd">
        <g fill="#FFF" fill-rule="nonzero">
            <g>
                <g>
                    <path d="M14.602 3.149c-1.686 0-3.259-.375-4.426-1.056C9.584 1.747 8.59 1.016 8.59 0H6.873c0 1.016-.993 1.747-1.585 2.093-1.168.68-2.74 1.056-4.427 1.056H.003v5.44c0 5.221 4.502 8.823 7.193 10.976l.536.429.536-.43c2.69-2.152 7.193-5.754 7.193-10.976V3.15h-.859zM6.873 17.077C4.103 14.72 1.72 12.07 1.72 8.588v-3.75c2.095-.14 3.914-.786 5.153-1.746v13.985zm6.87-8.489c0 3.482-2.382 6.132-5.152 8.489V3.092c1.24.96 3.058 1.607 5.153 1.746v3.75z" transform="translate(-38 -496) translate(38 496)"/>
                </g>
            </g>
        </g>
    </g>
</svg>
