<svg xmlns="http://www.w3.org/2000/svg" width="20" height="20" viewBox="0 0 20 20">
    <g fill="none" fill-rule="evenodd">
        <g fill="#FFF" fill-rule="nonzero">
            <g>
                <path d="M19.998 7.235L20 .588l-2.64 2.64-.296-.296C15.176 1.044 12.666.004 9.996.004 4.484.004 0 4.488 0 10c0 5.512 4.484 9.996 9.996 9.996 5.512 0 9.996-4.484 9.996-9.996h-1.935c0 4.445-3.616 8.061-8.061 8.061S1.935 14.445 1.935 10s3.616-8.061 8.06-8.061c2.154 0 4.178.838 5.701 2.36l.296.297-2.64 2.64 6.646-.001z" transform="translate(-36 -231) translate(36 231)"/>
                <path d="M9.996 10L9.996 6.453 8.061 6.453 8.061 11.935 13.543 11.935 13.543 10z" transform="translate(-36 -231) translate(36 231)"/>
            </g>
        </g>
    </g>
</svg>
