<svg xmlns="http://www.w3.org/2000/svg" width="20" height="20" viewBox="0 0 20 20">
    <g fill="none" fill-rule="evenodd">
        <g fill="#FFF" fill-rule="nonzero">
            <g>
                <path d="M10 0C4.486 0 0 4.486 0 10s4.486 10 10 10 10-4.486 10-10S15.514 0 10 0zm0 18.065c-4.447 0-8.065-3.618-8.065-8.065 0-4.447 3.618-8.065 8.065-8.065 4.447 0 8.065 3.618 8.065 8.065 0 4.447-3.618 8.065-8.065 8.065z" transform="translate(-36 -557) translate(36 557)"/>
                <path d="M13.509 6.412L8.71 11.212 6.168 8.671 4.8 10.039 8.71 13.949 14.878 7.781z" transform="translate(-36 -557) translate(36 557)"/>
            </g>
        </g>
    </g>
</svg>
